<?xml version="1.0" encoding="utf-8" standalone="no"?>
<!DOCTYPE svg PUBLIC "-//W3C//DTD SVG 1.1//EN"
  "http://www.w3.org/Graphics/SVG/1.1/DTD/svg11.dtd">
<svg xmlns:xlink="http://www.w3.org/1999/xlink" width="345.55748pt" height="226.155318pt" viewBox="0 0 345.55748 226.155318" xmlns="http://www.w3.org/2000/svg" version="1.1">
 <metadata>
  <rdf:RDF xmlns:dc="http://purl.org/dc/elements/1.1/" xmlns:cc="http://creativecommons.org/ns#" xmlns:rdf="http://www.w3.org/1999/02/22-rdf-syntax-ns#">
   <cc:Work>
    <dc:type rdf:resource="http://purl.org/dc/dcmitype/StillImage"/>
    <dc:date>2026-07-23T15:32:40.972992</dc:date>
    <dc:format>image/svg+xml</dc:format>
    <dc:creator>
     <cc:Agent>
      <dc:title>Matplotlib v3.11.1, https://matplotlib.org/</dc:title>
     </cc:Agent>
    </dc:creator>
   </cc:Work>
  </rdf:RDF>
 </metadata>
 <defs>
  <style type="text/css">*{stroke-linejoin: round; stroke-linecap: butt}</style>
 </defs>
 <g id="figure_1">
  <g id="patch_1">
   <path d="M 0 226.155318 
L 345.55748 226.155318 
L 345.55748 -0 
L 0 -0 
z
" style="fill: #ffffff"/>
  </g>
  <g id="axes_1">
   <g id="patch_2">
    <path d="M 89.431427 62.773211 
Q 133.341501 63.122108 175.50418 57.248432 
" style="fill: none; stroke: #7a3ea8; stroke-width: 1.2; stroke-linecap: round"/>
    <path d="M 172.325907 56.176711 
L 175.50418 57.248432 
L 172.73984 59.148017 
z
" style="fill: #7a3ea8; stroke: #7a3ea8; stroke-width: 1.2; stroke-linecap: round"/>
   </g>
   <g id="patch_3">
    <path d="M 85.153539 123.576892 
Q 127.264751 85.931681 176.904355 61.917779 
" style="fill: none; stroke: #7a3ea8; stroke-width: 1.2; stroke-linecap: round"/>
    <path d="M 173.550539 61.873935 
L 176.904355 61.917779 
L 174.85699 64.574525 
z
" style="fill: #7a3ea8; stroke: #7a3ea8; stroke-width: 1.2; stroke-linecap: round"/>
   </g>
   <g id="patch_4">
    <path d="M 283.342519 54.645972 
Q 241.495201 54.645972 200.989523 54.645972 
" style="fill: none; stroke: #7a3ea8; stroke-width: 1.2; stroke-linecap: round"/>
    <path d="M 203.989523 56.145972 
L 200.989523 54.645972 
L 203.989523 53.145972 
z
" style="fill: #7a3ea8; stroke: #7a3ea8; stroke-width: 1.2; stroke-linecap: round"/>
   </g>
   <g id="patch_5">
    <path d="M 87.211143 70.563844 
Q 148.018158 107.191789 201.059234 152.325627 
" style="fill: none; stroke: #b64342; stroke-width: 1.2; stroke-linecap: round"/>
    <path d="M 199.746541 149.23907 
L 201.059234 152.325627 
L 197.802372 151.523847 
z
" style="fill: #b64342; stroke: #b64342; stroke-width: 1.2; stroke-linecap: round"/>
   </g>
   <g id="patch_6">
    <path d="M 88.905403 138.553187 
Q 143.102635 152.462824 197.034723 161.054087 
" style="fill: none; stroke: #b64342; stroke-width: 1.2; stroke-linecap: round"/>
    <path d="M 194.308049 159.100821 
L 197.034723 161.054087 
L 193.836106 162.063467 
z
" style="fill: #b64342; stroke: #b64342; stroke-width: 1.2; stroke-linecap: round"/>
   </g>
   <g id="line2d_1">
    <path d="M 151.253504 37.123207 
L 151.253504 34.202746 
L 318.488031 34.202746 
L 318.488031 37.123207 
" clip-path="url(#p3329304834)" style="fill: none; stroke: #7a3ea8; stroke-width: 0.8; stroke-linecap: square"/>
   </g>
   <g id="patch_7">
    <path d="M 36.341858 76.744125 
L 110.521134 76.744125 
Q 115.157339 76.744125 115.157339 74.018362 
L 115.157339 50.849373 
Q 115.157339 48.123609 110.521134 48.123609 
L 36.341858 48.123609 
Q 31.705654 48.123609 31.705654 50.849373 
L 31.705654 74.018362 
Q 31.705654 76.744125 36.341858 76.744125 
z
" clip-path="url(#p3329304834)" style="fill: #ffffff; stroke: #7a3ea8; stroke-width: 1.1; stroke-linejoin: miter"/>
   </g>
   <g id="patch_8">
    <path d="M 36.341858 148.782158 
L 110.521134 148.782158 
Q 115.157339 148.782158 115.157339 146.056395 
L 115.157339 122.887406 
Q 115.157339 120.161642 110.521134 120.161642 
L 36.341858 120.161642 
Q 31.705654 120.161642 31.705654 122.887406 
L 31.705654 146.056395 
Q 31.705654 148.782158 36.341858 148.782158 
z
" clip-path="url(#p3329304834)" style="fill: #ffffff; stroke: #7a3ea8; stroke-width: 1.1; stroke-linejoin: miter"/>
   </g>
   <g id="patch_9">
    <path d="M 153.902764 68.95623 
L 231.393614 68.95623 
Q 236.029819 68.95623 236.029819 66.230466 
L 236.029819 43.061477 
Q 236.029819 40.335714 231.393614 40.335714 
L 153.902764 40.335714 
Q 149.266559 40.335714 149.266559 43.061477 
L 149.266559 66.230466 
Q 149.266559 68.95623 153.902764 68.95623 
z
" clip-path="url(#p3329304834)" style="fill: #7a3ea8; stroke: #7a3ea8; stroke-width: 1.1; stroke-linejoin: miter"/>
   </g>
   <g id="patch_10">
    <path d="M 264.84052 68.95623 
L 315.838772 68.95623 
Q 320.474976 68.95623 320.474976 66.230466 
L 320.474976 43.061477 
Q 320.474976 40.335714 315.838772 40.335714 
L 264.84052 40.335714 
Q 260.204315 40.335714 260.204315 43.061477 
L 260.204315 66.230466 
Q 260.204315 68.95623 264.84052 68.95623 
z
" clip-path="url(#p3329304834)" style="fill: #ffffff; stroke: #7a3ea8; stroke-width: 1.1; stroke-linejoin: miter"/>
   </g>
   <g id="patch_11">
    <path d="M 162.181701 181.39397 
L 266.16515 181.39397 
Q 270.801354 181.39397 270.801354 178.668207 
L 270.801354 148.684809 
Q 270.801354 145.959046 266.16515 145.959046 
L 162.181701 145.959046 
Q 157.545496 145.959046 157.545496 148.684809 
L 157.545496 178.668207 
Q 157.545496 181.39397 162.181701 181.39397 
z
" clip-path="url(#p3329304834)" style="fill: #e9a6a1; stroke: #b64342; stroke-width: 1.1; stroke-linejoin: miter"/>
   </g>
   <g id="text_1">
    <text style="font-weight: 700; font-size: 6.4px; font-family: 'Arial', 'Helvetica', 'DejaVu Sans', 'Liberation Sans', sans-serif; text-anchor: middle; fill: #7a3ea8" x="235.698661" y="30.519503" transform="rotate(-0 235.698661 30.519503)">μ-opioid receptor</text>
   </g>
   <g id="text_2">
    <text style="font-weight: 700; font-size: 6px; font-family: 'Arial', 'Helvetica', 'DejaVu Sans', 'Liberation Sans', sans-serif; text-anchor: start; fill: #7a3ea8" x="7.2" y="217.692505" transform="rotate(-0 7.2 217.692505)">SPOKE-derived (knowledge graph) · faithful to kg/*.json</text>
   </g>
   <g id="text_3">
    <text style="font-weight: 700; font-size: 7.6px; font-family: 'Arial', 'Helvetica', 'DejaVu Sans', 'Liberation Sans', sans-serif; text-anchor: middle" x="172.77874" y="12.733008" transform="rotate(-0 172.77874 12.733008)">SPOKE mechanism: shared μ-opioid target and respiratory-depression class effect</text>
   </g>
   <g id="text_4">
    <text style="font-weight: 700; font-size: 7px; font-family: 'Arial', 'Helvetica', 'DejaVu Sans', 'Liberation Sans', sans-serif; text-anchor: middle; fill: #7a3ea8" x="73.431496" y="56.94417" transform="rotate(-0 73.431496 56.94417)">Fentanyl</text>
   </g>
   <g id="text_5">
    <text style="font-size: 5.7px; font-family: 'Arial', 'Helvetica', 'DejaVu Sans', 'Liberation Sans', sans-serif; text-anchor: middle; fill: #7a3ea8" x="73.431496" y="72.183604" transform="rotate(-0 73.431496 72.183604)">Compound</text>
   </g>
   <g id="text_6">
    <text style="font-weight: 700; font-size: 7px; font-family: 'Arial', 'Helvetica', 'DejaVu Sans', 'Liberation Sans', sans-serif; text-anchor: middle; fill: #7a3ea8" x="73.431496" y="128.982203" transform="rotate(-0 73.431496 128.982203)">Hydromorphone</text>
   </g>
   <g id="text_7">
    <text style="font-size: 5.7px; font-family: 'Arial', 'Helvetica', 'DejaVu Sans', 'Liberation Sans', sans-serif; text-anchor: middle; fill: #7a3ea8" x="73.431496" y="144.221637" transform="rotate(-0 73.431496 144.221637)">Compound</text>
   </g>
   <g id="text_8">
    <text style="font-weight: 700; font-size: 7px; font-family: 'Arial', 'Helvetica', 'DejaVu Sans', 'Liberation Sans', sans-serif; text-anchor: middle; fill: #ffffff" x="192.648189" y="49.156343" transform="rotate(-0 192.648189 49.156343)">OPRM_HUMAN</text>
   </g>
   <g id="text_9">
    <text style="font-size: 5.7px; font-family: 'Arial', 'Helvetica', 'DejaVu Sans', 'Liberation Sans', sans-serif; text-anchor: middle; fill: #ffffff" x="192.648189" y="64.395708" transform="rotate(-0 192.648189 64.395708)">Protein · P35372</text>
   </g>
   <g id="text_10">
    <text style="font-weight: 700; font-size: 7px; font-family: 'Arial', 'Helvetica', 'DejaVu Sans', 'Liberation Sans', sans-serif; text-anchor: middle; fill: #7a3ea8" x="290.339646" y="49.156343" transform="rotate(-0 290.339646 49.156343)">OPRM1</text>
   </g>
   <g id="text_11">
    <text style="font-size: 5.7px; font-family: 'Arial', 'Helvetica', 'DejaVu Sans', 'Liberation Sans', sans-serif; text-anchor: middle; fill: #7a3ea8" x="290.339646" y="64.395708" transform="rotate(-0 290.339646 64.395708)">Gene</text>
   </g>
   <g id="text_12">
    <text style="font-weight: 700; font-size: 7px; font-family: 'Arial', 'Helvetica', 'DejaVu Sans', 'Liberation Sans', sans-serif; text-anchor: middle; fill: #272727" x="214.173425" y="154.779607" transform="rotate(-0 214.173425 154.779607)">Respiratory depression</text>
   </g>
   <g id="text_13">
    <text style="font-size: 5.7px; font-family: 'Arial', 'Helvetica', 'DejaVu Sans', 'Liberation Sans', sans-serif; text-anchor: middle; fill: #272727" x="214.173425" y="165.638349" transform="rotate(-0 214.173425 165.638349)">Side effect · C0235063</text>
   </g>
   <g id="text_14">
    <text style="font-size: 5.7px; font-family: 'Arial', 'Helvetica', 'DejaVu Sans', 'Liberation Sans', sans-serif; text-anchor: middle; fill: #272727" x="214.173425" y="176.833393" transform="rotate(-0 214.173425 176.833393)">(1 of 89 compounds)</text>
   </g>
   <g id="text_15">
    <g id="patch_12">
     <path d="M 112.857135 59.281247 
L 143.861578 56.568709 
Q 144.531021 56.510141 144.472452 55.840698 
L 144.015837 50.621571 
Q 143.957269 49.952129 143.287826 50.010697 
L 112.283383 52.723235 
Q 111.61394 52.781803 111.672509 53.451246 
L 112.129123 58.670372 
Q 112.187692 59.339815 112.857135 59.281247 
z
" style="fill: #ffffff; opacity: 0.85"/>
    </g>
    <text style="font-style: italic; font-size: 5.6px; font-family: 'Arial', 'Helvetica', 'DejaVu Sans', 'Liberation Sans', sans-serif; fill: #7a3ea8" transform="translate(112.697281 57.454116) rotate(-5)">BINDS_CbP</text>
   </g>
   <g id="text_16">
    <g id="patch_13">
     <path d="M 128.645267 102.55022 
L 151.774071 81.724952 
Q 152.273464 81.275296 151.823808 80.775903 
L 148.318191 76.88252 
Q 147.868536 76.383127 147.369142 76.832783 
L 124.240339 97.658051 
Q 123.740945 98.107707 124.190601 98.6071 
L 127.696218 102.500482 
Q 128.145874 102.999876 128.645267 102.55022 
z
" style="fill: #ffffff; opacity: 0.85"/>
    </g>
    <text style="font-style: italic; font-size: 5.6px; font-family: 'Arial', 'Helvetica', 'DejaVu Sans', 'Liberation Sans', sans-serif; fill: #7a3ea8" transform="translate(127.418009 101.187211) rotate(-42)">BINDS_CbP</text>
   </g>
   <g id="text_17">
    <g id="patch_14">
     <path d="M 227.275646 49.565516 
L 269.289646 49.565516 
Q 269.961646 49.565516 269.961646 48.893516 
L 269.961646 43.654453 
Q 269.961646 42.982453 269.289646 42.982453 
L 227.275646 42.982453 
Q 226.603646 42.982453 226.603646 43.654453 
L 226.603646 48.893516 
Q 226.603646 49.565516 227.275646 49.565516 
z
" style="fill: #ffffff; opacity: 0.85"/>
    </g>
    <text style="font-style: italic; font-size: 5.6px; font-family: 'Arial', 'Helvetica', 'DejaVu Sans', 'Liberation Sans', sans-serif; text-anchor: middle; fill: #7a3ea8" x="248.282646" y="47.731406" transform="rotate(-0 248.282646 47.731406)">ENCODES_GeP</text>
   </g>
   <g id="text_18">
    <g id="patch_15">
     <path d="M 109.236134 101.621173 
L 135.242758 132.614661 
Q 135.674712 133.129443 136.189494 132.69749 
L 140.202848 129.329885 
Q 140.71763 128.897932 140.285677 128.38315 
L 114.279053 97.389662 
Q 113.847099 96.87488 113.332317 97.306833 
L 109.318963 100.674438 
Q 108.804181 101.106391 109.236134 101.621173 
z
" style="fill: #ffffff; opacity: 0.85"/>
    </g>
    <text style="font-style: italic; font-size: 5.6px; font-family: 'Arial', 'Helvetica', 'DejaVu Sans', 'Liberation Sans', sans-serif; fill: #b64342" transform="translate(110.641143 100.44223) rotate(-310)">CAUSES_CcSE</text>
   </g>
   <g id="text_19">
    <g id="patch_16">
     <path d="M 117.654032 149.582665 
L 156.545839 160.734711 
Q 157.191807 160.919939 157.377035 160.273971 
L 158.821117 155.237861 
Q 159.006345 154.591893 158.360377 154.406665 
L 119.46857 143.254619 
Q 118.822602 143.06939 118.637374 143.715358 
L 117.193293 148.751468 
Q 117.008064 149.397436 117.654032 149.582665 
z
" style="fill: #ffffff; opacity: 0.85"/>
    </g>
    <text style="font-style: italic; font-size: 5.6px; font-family: 'Arial', 'Helvetica', 'DejaVu Sans', 'Liberation Sans', sans-serif; fill: #b64342" transform="translate(118.159581 147.819606) rotate(-344)">CAUSES_CcSE</text>
   </g>
  </g>
 </g>
 <defs>
  <clipPath id="p3329304834">
   <rect x="7.2" y="14.733008" width="331.15748" height="194.697386"/>
  </clipPath>
 </defs>
</svg>
